<svg width="20" height="20" viewBox="0 0 20 20" fill="none" xmlns="http://www.w3.org/2000/svg">
<path d="M13.3134 13.0058C13.191 12.7604 12.5782 11.875 12.5782 11.875C12.5782 11.875 11.5834 12.5226 11.0938 12.8906C11.3386 13.4427 11.9058 13.8646 11.9058 14.7847C11.9058 15.5822 11.1337 16.5861 10.1563 16.5625C9.20419 16.5395 8.47848 15.7049 8.41728 14.7847C8.41728 14.1406 8.51565 13.9062 8.82815 13.5156C9.2969 13.125 11.3281 11.7188 12.3438 11.0156L12.3438 11.0156C12.9688 10.4688 13.2852 9.76505 12.7344 8.90625C11.9388 9.45833 9.83869 10.7263 8.12503 11.9531C7.1094 12.8125 6.71878 13.4375 6.58122 14.7847C6.64242 17.1157 8.47663 18.2813 10.1563 18.2812C12.1336 18.2523 13.6886 16.7077 13.7487 14.7686C13.7716 14.0286 13.4971 13.3125 13.3134 13.0058Z" fill="#74788D"/>
<path d="M6.58802 4.75747C6.48438 6.48438 7.10939 7.34375 7.65627 8.125C8.28127 7.73438 8.67189 7.5 9.21877 7.1875C8.97396 6.81944 8.91369 6.68685 8.53968 6.07407C8.42408 5.82805 8.39008 5.30797 8.47848 4.90856C8.66209 4.29514 9.05462 3.59375 10.1563 3.59375C11.3803 3.59375 11.8446 4.54051 11.8922 5.10874C11.8922 5.72346 11.8347 6.36748 11.4063 6.79688C11.0391 7.10359 9.41027 8.06424 8.12503 8.98438C7.94142 9.10706 6.86065 9.94244 7.65628 11.1719C9.14065 10.1562 11.1719 8.82812 12.4219 8.04688C13.3594 7.34375 13.7419 6.38079 13.7419 5.3993C13.7419 3.98843 12.8125 1.79688 10.1563 1.71875C8.4426 1.78009 6.87501 3.04688 6.58802 4.75747Z" fill="#74788D"/>
</svg>
