<svg width="16" height="16" viewBox="0 0 16 16" fill="none" xmlns="http://www.w3.org/2000/svg">
<path d="M7.33301 6.00004H8.66634V4.66671H7.33301M7.99967 13.3334C5.05967 13.3334 2.66634 10.94 2.66634 8.00004C2.66634 5.06004 5.05967 2.66671 7.99967 2.66671C10.9397 2.66671 13.333 5.06004 13.333 8.00004C13.333 10.94 10.9397 13.3334 7.99967 13.3334ZM7.99967 1.33337C7.1242 1.33337 6.25729 1.50581 5.44845 1.84084C4.63961 2.17588 3.90469 2.66694 3.28563 3.286C2.03539 4.53624 1.33301 6.23193 1.33301 8.00004C1.33301 9.76815 2.03539 11.4638 3.28563 12.7141C3.90469 13.3331 4.63961 13.8242 5.44845 14.1592C6.25729 14.4943 7.1242 14.6667 7.99967 14.6667C9.76778 14.6667 11.4635 13.9643 12.7137 12.7141C13.964 11.4638 14.6663 9.76815 14.6663 8.00004C14.6663 7.12456 14.4939 6.25765 14.1589 5.44882C13.8238 4.63998 13.3328 3.90505 12.7137 3.286C12.0947 2.66694 11.3597 2.17588 10.5509 1.84084C9.74206 1.50581 8.87515 1.33337 7.99967 1.33337ZM7.33301 11.3334H8.66634V7.33337H7.33301V11.3334Z" fill="#74788D"/>
</svg>
