<svg width="32" height="32" viewBox="0 0 32 32" fill="none" xmlns="http://www.w3.org/2000/svg">
<path d="M24 22C24.2549 22.0003 24.5 22.0979 24.6854 22.2728C24.8707 22.4478 24.9822 22.687 24.9972 22.9414C25.0121 23.1958 24.9293 23.4464 24.7657 23.6418C24.6021 23.8373 24.3701 23.9629 24.117 23.993L24 24H8C7.74512 23.9997 7.49997 23.9021 7.31463 23.7272C7.1293 23.5522 7.01777 23.313 7.00283 23.0586C6.98789 22.8042 7.07067 22.5536 7.23426 22.3582C7.39786 22.1627 7.6299 22.0371 7.883 22.007L8 22H24ZM24 15C24.2652 15 24.5196 15.1054 24.7071 15.2929C24.8946 15.4804 25 15.7348 25 16C25 16.2652 24.8946 16.5196 24.7071 16.7071C24.5196 16.8946 24.2652 17 24 17H8C7.73478 17 7.48043 16.8946 7.29289 16.7071C7.10536 16.5196 7 16.2652 7 16C7 15.7348 7.10536 15.4804 7.29289 15.2929C7.48043 15.1054 7.73478 15 8 15H24ZM24 8C24.2652 8 24.5196 8.10536 24.7071 8.29289C24.8946 8.48043 25 8.73478 25 9C25 9.26522 24.8946 9.51957 24.7071 9.70711C24.5196 9.89464 24.2652 10 24 10H8C7.73478 10 7.48043 9.89464 7.29289 9.70711C7.10536 9.51957 7 9.26522 7 9C7 8.73478 7.10536 8.48043 7.29289 8.29289C7.48043 8.10536 7.73478 8 8 8H24Z" fill="#74788D"/>
</svg>
