<svg width="32" height="32" viewBox="0 0 32 32" fill="none" xmlns="http://www.w3.org/2000/svg">
    <path d="M854.9 762.9H745.2v-64h109.7c13.7 0 24.9-11.2 24.9-24.9V170.5c0-13.7-11.2-24.9-24.9-24.9H351.5c-13.7 0-24.9 11.2-24.9 24.9v121.9h-64V170.5c0-49 39.9-88.9 88.9-88.9h503.4c49 0 88.9 39.9 88.9 88.9V674c0 49-39.9 88.9-88.9 88.9z"/>
    <path d="M671.5 945.3H182.4c-57.3 0-104-46.7-104-104V352.2c0-57.3 46.7-104 104-104h489.1c57.3 0 104 46.7 104 104v489.1c0 57.3-46.7 104-104 104zM182.4 312.2c-22.1 0-40 17.9-40 40v489.1c0 22.1 17.9 40 40 40h489.1c22.1 0 40-17.9 40-40V352.2c0-22.1-17.9-40-40-40H182.4z"/>
</svg>
