<svg width="32" height="32" viewBox="0 0 32 32" fill="none" xmlns="http://www.w3.org/2000/svg">
<path d="M30.521 18.8555C30.521 18.7424 30.4759 18.6335 30.3958 18.5534L28.7391 16.8967C28.5722 16.7298 28.302 16.7298 28.1351 16.8967L26.2359 18.7959C25.8407 18.3839 25.3955 18.0289 24.9063 17.732C25.121 16.6284 25.1244 15.9207 25.1244 15.8885V7.76745C25.1244 7.53138 24.9329 7.34011 24.6971 7.34011C19.5256 7.34011 14.2237 2.10397 14.1707 2.05105C14.0033 1.88414 13.733 1.88414 13.5667 2.05133C13.5138 2.10425 8.21771 7.34011 3.0401 7.34011C2.80403 7.34011 2.61276 7.53138 2.61276 7.76745V15.8885C2.61276 15.9863 2.7399 25.7072 13.7185 29.8238C13.7669 29.842 13.8176 29.8512 13.8686 29.8512C13.9196 29.8512 13.9702 29.842 14.0187 29.8238C15.1523 29.3984 16.2164 28.891 17.1946 28.3197C18.3917 29.3567 19.9039 29.9302 21.496 29.9302C25.1236 29.9302 28.0752 26.9786 28.0752 23.3507C28.0752 22.7887 27.9998 22.2331 27.8593 21.6937L30.3958 19.1574C30.4759 19.0776 30.521 18.9687 30.521 18.8555ZM13.8686 28.9674C3.60858 25.036 3.46856 16.2618 3.46772 15.8888V8.1847C8.17094 7.95731 12.6706 4.06227 13.8689 2.94548C15.0671 4.06227 19.5668 7.95731 24.27 8.1847V15.8883C24.27 15.8947 24.2667 16.4424 24.1152 17.3139C23.9838 17.2568 23.8505 17.2055 23.7161 17.1574C23.6811 17.1448 23.6453 17.1339 23.61 17.1218C23.4946 17.0826 23.3784 17.0468 23.261 17.0143C23.2196 17.0028 23.1784 16.991 23.1367 16.9804C23.1227 16.9768 23.1093 16.9726 23.0953 16.9692C23.1955 16.3159 23.1983 15.909 23.1983 15.8891V9.21188C23.1983 8.97581 23.0068 8.78454 22.771 8.78454C18.5514 8.78454 14.2136 4.50137 14.1705 4.45825C14.0036 4.29162 13.7333 4.29162 13.5664 4.45825C13.5236 4.50137 9.18524 8.78454 4.96564 8.78454C4.72956 8.78454 4.5383 8.97581 4.5383 9.21188V15.8891C4.5383 15.97 4.64331 24.0144 13.7188 27.4174C13.7672 27.4356 13.8179 27.4448 13.8689 27.4448C13.9198 27.4448 13.9705 27.4356 14.019 27.4174C14.6373 27.1858 15.2321 26.9234 15.7958 26.6378C15.8101 26.6627 15.8263 26.6859 15.8409 26.7106C15.8672 26.7548 15.8949 26.798 15.9224 26.8416C15.9901 26.9497 16.0607 27.0556 16.1346 27.1595C16.1652 27.2026 16.1954 27.2457 16.2271 27.288C16.3195 27.4115 16.4158 27.5322 16.5169 27.6493C16.5301 27.6644 16.5421 27.6806 16.5553 27.6958C16.5578 27.6986 16.5597 27.7016 16.5623 27.7042C15.7258 28.1777 14.8227 28.6014 13.8686 28.9674ZM14.9456 23.9438C14.9484 23.9749 14.9504 24.006 14.9534 24.0371C14.9728 24.2238 15.0005 24.4087 15.0352 24.5918C15.0419 24.6271 15.0492 24.6618 15.0565 24.6968C15.0949 24.8814 15.1397 25.064 15.194 25.2443C15.2007 25.267 15.2088 25.2891 15.2161 25.3118C15.2719 25.4893 15.3346 25.6649 15.4057 25.8383C15.4105 25.8497 15.4136 25.8615 15.4183 25.873C14.926 26.1225 14.4071 26.3527 13.8691 26.5602C5.51227 23.3426 5.39381 16.1929 5.39297 15.8888V9.62662C9.19336 9.40539 12.8123 6.3261 13.8689 5.35045C14.9252 6.3261 18.5438 9.40539 22.3442 9.62662V15.8883C22.3442 15.8925 22.342 16.2431 22.2554 16.8155C22.2201 16.8113 22.1846 16.8099 22.1493 16.8062C22.1087 16.8023 22.0684 16.7989 22.0278 16.7956C21.8513 16.7813 21.6741 16.7715 21.496 16.7715C17.8684 16.7715 14.9168 19.7231 14.9168 23.3507C14.9168 23.5504 14.9282 23.7478 14.9456 23.9438ZM27.1435 22.4098C27.1947 22.7192 27.2205 23.034 27.2205 23.3507C27.2205 26.5073 24.6525 29.0755 21.496 29.0755C20.0162 29.0755 18.6113 28.5126 17.541 27.4902C17.0521 27.0223 16.6538 26.479 16.3573 25.8752C15.9686 25.0864 15.7714 24.237 15.7714 23.3504C15.7714 20.1938 18.3394 17.6259 21.4962 17.6259C21.8446 17.6259 22.1919 17.6573 22.5299 17.7194C23.1227 17.827 23.6926 18.028 24.2241 18.3162C24.7514 18.6027 25.2247 18.9645 25.6358 19.3957L21.8116 23.2202L19.3534 20.7617C19.1865 20.5948 18.9163 20.5948 18.7494 20.7617L17.0932 22.4179C16.9263 22.5845 16.9263 22.8553 17.0932 23.0219L21.5097 27.439C21.5895 27.519 21.6984 27.5641 21.8116 27.5641C21.9247 27.5641 22.0336 27.519 22.1137 27.439L27.1435 22.4098ZM27.0824 21.2625L27.0819 21.263L21.8113 26.5333L17.9989 22.7203L19.051 21.6682L21.5094 24.1267C21.6763 24.2936 21.9465 24.2936 22.1134 24.1267L26.5246 19.7161L26.5249 19.7158L28.4373 17.8034L29.4899 18.8561L27.0824 21.2625Z" fill="#2354A2"/>
</svg>
