<svg width="20" height="20" viewBox="0 0 20 20" fill="none" xmlns="http://www.w3.org/2000/svg">
<path fill-rule="evenodd" clip-rule="evenodd" d="M16.6053 10.0004V5.51709C16.6053 5.35858 16.4649 5.23016 16.3027 5.23016C16.1162 5.23016 15.9294 5.21895 15.7429 5.19793C12.9468 4.88257 10.249 2.35864 10.2138 2.32533C10.0957 2.21345 9.90437 2.21346 9.78621 2.32533C9.74874 2.36087 6.68154 5.23016 3.69713 5.23016C3.53 5.23016 3.39459 5.35858 3.39459 5.51709L3.39462 10.0004C3.39462 10.0547 3.46894 15.456 9.89406 17.7409C9.92836 17.7531 9.96424 17.7593 10.0003 17.7593C10.0364 17.7593 10.0712 17.754 10.1066 17.7409C16.2879 15.4463 16.6053 10.0609 16.6053 10.0004ZM10.0005 17.1653C15.5799 15.0267 16.0006 10.1972 16.0006 9.99983C16.0006 9.80247 16.0006 5.79555 16.0006 5.79555C13.31 5.64701 10.7482 3.57947 10.0003 2.92439C9.2523 3.57947 6.69022 5.64701 3.99967 5.79555V10.0002C4.00027 10.2044 4.08413 15.0049 10.0005 17.1653Z" fill="#74788D"/>
<path d="M17.9688 9.99999V4.54721C17.9688 4.38871 17.8331 4.26028 17.6662 4.26028C14.005 4.26028 10.2514 0.744561 10.2139 0.709024C10.0954 0.596961 9.90404 0.596961 9.78628 0.709212C9.74881 0.74475 5.99937 4.26028 2.33379 4.26028C2.16666 4.26028 2.03125 4.38871 2.03125 4.54721V9.99999C2.03125 10.0656 2.12126 16.5926 9.89373 19.3566C9.92803 19.3688 9.96392 19.375 10 19.375C10.0361 19.375 10.072 19.3689 10.1063 19.3566C17.7037 16.6213 17.9688 10.0748 17.9688 9.99999ZM10 18.7816C2.74786 16.1461 2.63653 10.2503 2.63653 10.0002V4.82737C5.32708 4.67883 9.14897 2.06198 10.0002 1.30958C10.8502 2.06093 14.0473 4.6753 17.3639 4.82737V9.9998C17.3639 10.3266 16.9957 16.1177 10 18.7816Z" fill="#74788D"/>
</svg>
